# xmcd
#
# Track frame offsets:
#	150
#	11196
#	23272
#	37464
#	49055
#	59349
#	72233
#	84450
#	96114
#	107216
#	118337
#	127629
#	140673
#	152208
#	166628
#	180095
#	193857
#	197409
#	210689
#	222335
#	233776
#
# Disc length: 3220 seconds
#
# Revision: 1
# Processed by: cddbd v1.5.2PL0 Copyright (c) Steve Scherf et al.
# Submitted via: audiograbber 1.83.01
#
DISCID=240c9215
DTITLE=Dolly Parton and Porter Wagoner - Just Between You And Me [CD 6)
DYEAR=2014
DGENRE=Country
TTITLE0=Life Rides The Train
TTITLE1=Two
TTITLE2=Hide Me Away
TTITLE3=We'd Have To Be Crazy
TTITLE4=Love To See Us Through
TTITLE5=If You Were Mine
TTITLE6=Our Love
TTITLE7=Is Forever Longer Than Always
TTITLE8=I Learned It Well
TTITLE9=Touching Memories
TTITLE10=In The Morning
TTITLE11=About Susanne, About Your Man
TTITLE12=A Fool Like Me
TTITLE13=Someone Just Like You
TTITLE14=Golden Streets Of Glory
TTITLE15=Twin Mounds Of Clay
TTITLE16=Intro by Porter
TTITLE17=Run That By Me One More Time [live]
TTITLE18=Jeannie's Afraid Of The Dark [live]
TTITLE19=Tomorrow Is Forever [live]
TTITLE20=Two Sides To Every Story [live]
EXTD=
EXTT0=
EXTT1=
EXTT2=
EXTT3=
EXTT4=
EXTT5=
EXTT6=
EXTT7=
EXTT8=
EXTT9=
EXTT10=
EXTT11=
EXTT12=
EXTT13=
EXTT14=
EXTT15=
EXTT16=
EXTT17=
EXTT18=
EXTT19=
EXTT20=
PLAYORDER=
